{"title":"Fact.or.Faked.Paranormal.Files.S01E11.Lunar.Landing.Hoax.Tropica","uid":6013912,"size":366683968,"categoryP":"video","categoryS":"tv_shows","magnet":"?xt=urn:btih:a4b4ed3a3ff3959b9b2527193ab268681beea891&amp;dn=Fact.or.Faked.Paranormal.Files.S01E11.Lunar.Landing.Hoax.Tropica&amp;tr=udp%3A%2F%2Ftracker.openbittorrent.com%3A80&amp;tr=udp%3A%2F%2Fopen.demonii.com%3A1337&amp;tr=udp%3A%2F%2Ftracker.coppersurfer.tk%3A6969&amp;tr=udp%3A%2F%2Fexodus.desync.com%3A6969","seeders":1,"leechers":2,"uploader":"trialNerror","files":1,"time":1291510602,"description":"Format                           : AVI\nFormat/Info                      : Audio Video Interleave\nFile size                        : 350 MiB\nDuration                         : 43mn 35s\nOverall bit rate                 : 1 122 Kbps\n\nVideo\nID                               : 0\nFormat                           : MPEG-4 Visual\nFormat profile                   : Simple@L3\nFormat settings, BVOP            : No\nFormat settings, QPel            : No\nFormat settings, GMC             : No warppoints\nFormat settings, Matrix          : Default (H.263)\nCodec ID                         : XVID\nCodec ID/Hint                    : XviD\nDuration                         : 43mn 35s\nBit rate                         : 980 Kbps\nWidth                            : 624 pixels\nHeight                           : 352 pixels\nDisplay aspect ratio             : 16:9\nFrame rate                       : 29.970 fps\nColor space                      : YUV\nChroma subsampling               : 4:2:0\nBit depth                        : 8 bits\nScan type                        : Progressive\nBits/(Pixel*Frame)               : 0.149\nStream size                      : 305 MiB (87%)\nWriting library                  : XviD 1.1.2 (UTC 2006-11-01)\n\nAudio\nID                               : 1\nFormat                           : MPEG Audio\nFormat version                   : Version 1\nFormat profile                   : Layer 3\nMode                             : Joint stereo\nMode extension                   : MS Stereo\nCodec ID                         : 55\nCodec ID/Hint                    : MP3\nDuration                         : 43mn 35s\nBit rate mode                    : Constant\nBit rate                         : 128 Kbps\nChannel(s)                       : 2 channels\nSampling rate                    : 48.0 KHz\nStream size                      : 39.9 MiB (11%)\nAlignment                        : Split accross interleaves\nInterleave, duration             : 24 ms (0.72 video frame)\nInterleave, preload duration     : 205 ms\nWriting library                  : LAME3.98\n\n","torrent":{"xt":"urn:btih:a4b4ed3a3ff3959b9b2527193ab268681beea891","amp;dn":"Fact.or.Faked.Paranormal.Files.S01E11.Lunar.Landing.Hoax.Tropica","amp;tr":["udp%3A%2F%2Ftracker.openbittorrent.com%3A80","udp%3A%2F%2Fopen.demonii.com%3A1337","udp%3A%2F%2Ftracker.coppersurfer.tk%3A6969","udp%3A%2F%2Fexodus.desync.com%3A6969"],"infoHash":"a4b4ed3a3ff3959b9b2527193ab268681beea891","infoHashBuffer":{"type":"Buffer","data":[164,180,237,58,63,243,149,155,155,37,39,25,58,178,104,104,27,238,168,145]},"announce":[],"urlList":[]}}